# xmcd CD database file
#
# Track frame offsets:
#	150
#	17567
#	31527
#	44415
#	59782
#	79162
#	90937
#	101507
#	117822
#	134195
#	149785
#	164105
#	176992
#	187072
#	204557
#	220395
#
# Disc length: 3152 seconds
#
# Revision: 1
# Processed by: cddbd v1.5.1PL2 Copyright (c) Steve Scherf et al.
# Submitted via: CDex 1.70beta2
#
DISCID=f60c4e10
DTITLE=Fiona Boyes - Blues In My Heart
DYEAR=2000
DGENRE=Blues
TTITLE0=Blues In My Heart
TTITLE1=Pig Meat
TTITLE2=She Could Play That Thing (Blues For Memphis Minnie)
TTITLE3=I Let The Blues In
TTITLE4=Have Faith
TTITLE5=Honey You Can Take My Man
TTITLE6=My Say So
TTITLE7=Rowdy Blues
TTITLE8=Mean World
TTITLE9=Angel
TTITLE10=Two Legged Dog
TTITLE11=That Certain Something
TTITLE12=Hokum Rag
TTITLE13=Mercy (Mississippi Road)
TTITLE14=Canned Heat
TTITLE15=Hotel Room
EXTD=YEAR: 2000
EXTT0=
EXTT1=
EXTT2=
EXTT3=
EXTT4=
EXTT5=
EXTT6=
EXTT7=
EXTT8=
EXTT9=
EXTT10=
EXTT11=
EXTT12=
EXTT13=
EXTT14=
EXTT15=
PLAYORDER=
